<?xml version="1.0" standalone="no"?>
<!DOCTYPE svg PUBLIC "-//W3C//DTD SVG 20010904//EN"
 "http://www.w3.org/TR/2001/REC-SVG-20010904/DTD/svg10.dtd">
<svg version="1.0" xmlns="http://www.w3.org/2000/svg"
 width="1024.000000pt" height="1024.000000pt" viewBox="0 0 1024.000000 1024.000000"
 preserveAspectRatio="xMidYMid meet">

<g transform="translate(0.000000,1024.000000) scale(0.100000,-0.100000)"
fill="#000000" stroke="none">
<path d="M2690 8824 c-160 -43 -325 -218 -359 -382 -8 -38 -11 -654 -11 -2156
0 -2062 0 -2104 20 -2180 11 -43 32 -101 47 -129 53 -100 171 -194 305 -243
27 -11 95 -19 187 -23 l144 -6 37 -42 c64 -72 100 -203 115 -413 6 -78 2 -123
-19 -252 -27 -164 -97 -526 -171 -892 -40 -191 -44 -223 -34 -260 14 -53 73
-109 130 -124 24 -6 168 -26 319 -42 299 -34 915 -118 1320 -180 831 -128 910
-138 963 -121 79 26 83 38 202 506 42 165 85 318 94 340 26 59 65 100 123 129
75 38 151 34 546 -24 188 -28 374 -50 418 -50 269 1 480 165 525 412 10 56 9
90 -6 216 -10 82 -15 166 -11 185 5 25 27 58 72 107 36 39 69 82 74 96 16 42
11 119 -11 168 l-21 48 61 56 c59 56 100 125 101 170 0 13 -13 73 -29 135 -39
151 -48 254 -27 295 9 17 25 36 36 42 10 5 71 14 136 20 134 11 214 41 277
104 59 58 72 91 71 176 0 92 16 60 -282 560 -130 217 -248 422 -262 455 -24
59 -25 66 -27 320 -3 488 -14 624 -69 868 -68 306 -209 611 -392 852 -115 150
-345 364 -496 459 -55 35 -59 36 -77 20 -18 -16 -19 -43 -19 -718 l1 -701 81
-45 c212 -117 446 -312 537 -448 123 -184 165 -377 125 -582 -29 -148 -25
-190 41 -400 56 -181 58 -188 62 -326 8 -226 -30 -419 -119 -601 -124 -257
-322 -409 -632 -488 l-89 -22 -46 -89 c-125 -242 -386 -376 -651 -335 -186 29
-312 115 -535 363 -49 54 -68 69 -105 78 -207 51 -384 125 -537 224 l-72 46
-979 0 c-705 0 -989 3 -1013 11 -57 19 -100 59 -124 113 l-23 51 -3 2110 -4
2110 22 40 c24 46 54 75 103 101 34 18 95 19 1633 22 1053 1 1612 -1 1636 -8
54 -14 100 -48 136 -99 l30 -43 3 -794 2 -794 53 0 c47 0 137 -11 210 -26 l27
-6 0 811 0 811 -25 65 c-47 126 -158 256 -266 310 -112 57 -34 55 -1799 54
-1398 0 -1633 -2 -1680 -15z"/>
<path d="M3106 8029 c-56 -44 -56 -40 -56 -514 0 -482 1 -487 62 -525 33 -20
47 -20 1273 -20 1182 0 1242 1 1274 18 94 50 93 190 -2 235 -32 16 -131 17
-1181 17 l-1146 0 0 260 0 260 818 0 c802 0 818 0 850 20 38 23 62 72 62 125
0 43 -18 81 -55 115 l-27 25 -922 3 -923 2 -27 -21z"/>
<path d="M3124 6501 c-32 -20 -64 -74 -64 -111 0 -37 32 -91 64 -111 30 -18
65 -19 969 -17 l939 3 35 39 c33 36 35 41 31 93 -4 45 -11 60 -37 86 l-31 32
-938 3 c-903 2 -938 1 -968 -17z"/>
<path d="M5932 6469 c-68 -26 -145 -102 -180 -176 -36 -78 -39 -212 -5 -285
34 -75 107 -145 200 -193 1 0 5 -80 9 -177 l7 -176 -49 -25 c-27 -14 -58 -32
-69 -40 -18 -14 -28 -6 -160 117 l-140 131 4 68 c7 133 -43 223 -153 277 -61
31 -71 32 -148 28 -120 -6 -195 -53 -245 -152 -95 -187 36 -409 241 -411 34 0
78 4 98 8 l37 8 158 -149 158 -149 0 -131 0 -131 -152 -120 c-147 -117 -152
-120 -185 -111 -51 15 -139 12 -194 -7 -66 -22 -145 -101 -167 -167 -36 -104
-14 -214 58 -294 136 -151 379 -120 469 60 22 43 26 66 26 134 l0 81 139 112
139 111 50 -33 c27 -17 56 -36 65 -42 14 -8 17 -42 23 -205 l7 -196 -43 -19
c-56 -25 -124 -96 -158 -164 -24 -49 -27 -67 -27 -151 1 -83 4 -102 28 -151
48 -99 139 -166 254 -189 165 -33 320 46 392 199 36 78 37 210 2 288 -27 61
-109 142 -174 174 l-44 22 -7 135 c-3 74 -6 161 -6 192 l0 57 38 11 c20 7 60
29 88 51 l52 39 137 -109 138 -109 1 -92 c1 -82 4 -98 28 -139 34 -57 88 -106
147 -132 59 -26 176 -20 239 12 105 54 168 164 159 281 -5 76 -29 130 -84 182
-75 72 -196 104 -282 75 l-45 -16 -161 129 -161 128 0 114 0 113 156 158 c151
154 156 158 183 148 37 -14 145 -14 188 0 59 20 124 75 155 131 26 47 29 63
29 138 0 101 -25 161 -89 216 -108 92 -293 88 -394 -9 -60 -57 -86 -121 -87
-215 l-1 -83 -139 -139 -138 -139 -41 29 c-23 15 -58 35 -77 43 -36 15 -36 15
-42 92 -4 43 -7 121 -7 174 l0 97 38 13 c141 51 243 212 229 363 -11 126 -99
245 -213 288 -76 28 -227 27 -302 -1z"/>
<path d="M3123 5840 c-62 -37 -82 -124 -43 -187 39 -65 16 -63 688 -63 603 0
610 0 636 21 76 60 72 181 -8 230 -29 18 -62 19 -636 19 -582 0 -606 -1 -637
-20z"/>
<path d="M3112 5150 c-36 -22 -62 -72 -62 -118 0 -36 37 -93 72 -110 39 -18
1506 -19 1545 0 36 17 73 73 73 110 0 46 -26 96 -62 118 -32 20 -48 20 -783
20 -735 0 -751 0 -783 -20z"/>
</g>
</svg>
